<?xml version="1.0" encoding="utf-8"?>
<!-- Generator: Adobe Illustrator 24.3.0, SVG Export Plug-In . SVG Version: 6.00 Build 0)  -->
<svg version="1.1" id="Calque_1" xmlns="http://www.w3.org/2000/svg" xmlns:xlink="http://www.w3.org/1999/xlink" x="0px" y="0px"
	 viewBox="0 0 595.3 841.9" style="enable-background:new 0 0 595.3 841.9;" xml:space="preserve">
<style type="text/css">
	.st0{fill:#B7E1F7;}
	.st1{fill:#FFFFFF;}
	.st2{fill:#2B4B9B;}
	.st3{fill:#475B66;}
</style>
<g>
	<circle class="st0" cx="298" cy="420.5" r="285.5"/>
	<g id="surface1">
		<path class="st1" d="M297.6,272.1c-85.9,0-155.5,69.6-155.5,155.5s69.6,155.5,155.5,155.5s155.5-69.6,155.5-155.5
			C453,341.8,383.4,272.3,297.6,272.1z"/>
		<path class="st2" d="M402.9,542c-59.5,54.8-151,54.8-210.5,0C251.8,487.2,343.4,487.2,402.9,542z"/>
		<path class="st2" d="M310.4,449.7c-10.4,9.6-27.8,2.9-34.9-9.4c-7.1-12.2-4.2-30.7,9.4-34.9l110-34L310.4,449.7z"/>
		<path class="st3" d="M297.6,239.1c-104.1,0-188.5,84.4-188.5,188.5s84.4,188.5,188.5,188.5s188.5-84.4,188.5-188.5
			C486,323.6,401.7,239.3,297.6,239.1z M297.6,583c-83.4-0.2-151.8-65.9-155.3-149.2H159c3.4,0,6.2-2.8,6.2-6.2s-2.8-6.2-6.2-6.2
			h-16.6c0.9-23.1,7-45.6,17.8-66l14.6,8.3c3,1.7,6.8,0.7,8.5-2.3c1.7-3,0.7-6.8-2.3-8.5l-14.5-8.3c12.3-19.4,28.7-35.9,48.1-48.2
			l8.3,14.5c1.7,3,5.5,4,8.5,2.3c3-1.7,4-5.5,2.3-8.5l-8.3-14.5c20.4-10.8,43-16.9,66.1-17.8v16.6c-0.1,3.4,2.6,6.3,6,6.4
			c0.1,0,0.1,0,0.2,0c3.4,0,6.2-2.8,6.2-6.2v-16.6c23,0.9,45.6,7,66,17.8l-8.3,14.6c-1.7,3-0.7,6.8,2.3,8.5c3,1.7,6.8,0.7,8.5-2.3
			l8.3-14.5c19.4,12.2,35.8,28.6,48.2,47.9l-14.5,8.3c-3,1.7-4,5.5-2.3,8.5c1.7,3,5.5,4,8.5,2.3l14.5-8.3
			c10.8,20.4,16.8,42.9,17.8,66h-16.6c-3.4,0-6.2,2.8-6.2,6.2c0,3.4,2.8,6.2,6.2,6.2h16.6C449.5,517,381,582.9,297.6,583L297.6,583z
			"/>
		<path class="st1" d="M310.9,427.6c0,7.3-6,13.3-13.3,13.3s-13.3-6-13.3-13.3s6-13.3,13.3-13.3S310.9,420.2,310.9,427.6z"/>
	</g>
</g>
</svg>
