<?xml version="1.0" encoding="utf-8"?>
<!-- Generator: Adobe Illustrator 24.3.0, SVG Export Plug-In . SVG Version: 6.00 Build 0)  -->
<svg version="1.1" id="Calque_1" xmlns="http://www.w3.org/2000/svg" xmlns:xlink="http://www.w3.org/1999/xlink" x="0px" y="0px"
	 viewBox="0 0 595.3 841.9" style="enable-background:new 0 0 595.3 841.9;" xml:space="preserve">
<style type="text/css">
	.st0{fill:#B7E1F7;}
	.st1{fill:#FCC010;}
	.st2{fill:#627E8B;}
	.st3{fill:#FFD550;}
</style>
<g>
	<circle class="st0" cx="298" cy="420.5" r="285.5"/>
	<path class="st1" d="M421.4,392.4c0,33.7-13.4,64.5-35.2,86.8H347c-3.2,0-6.5,1.2-8.7,3.7l-33.2,33c-2.5,0.5-5.2,0.5-7.7,0.5
		c-2.5,0-5.2,0-7.7-0.5l-33.2-33c-2.2-2.5-5.5-3.7-8.7-3.7h-39.2c-21.8-22.3-35.2-53.1-35.2-86.8c0-68.5,55.6-124.1,124.1-124.1
		S421.4,323.9,421.4,392.4z"/>
	<path class="st2" d="M485,466.5H347.9c-3.3,0-6.5,1.3-8.8,3.6L298,511.3l-41.1-41.1c-2.3-2.3-5.5-3.7-8.8-3.7H111
		c-6.9,0-12.5,5.6-12.5,12.5c0,6.9,5.6,12.5,12.5,12.5h132l46.2,46.2c2.4,2.4,5.6,3.6,8.8,3.6s6.4-1.2,8.8-3.6l46.2-46.2h132
		c6.9,0,12.5-5.6,12.5-12.5C497.5,472.1,491.9,466.5,485,466.5z"/>
	<g>
		<path class="st3" d="M298,242.1c6.9,0,12.5-5.6,12.5-12.5v-24.9c0-6.9-5.6-12.5-12.5-12.5s-12.5,5.6-12.5,12.5v24.9
			C285.5,236.5,291.1,242.1,298,242.1z"/>
		<path class="st3" d="M111,404.2h24.9c6.9,0,12.5-5.6,12.5-12.5c0-6.9-5.6-12.5-12.5-12.5H111c-6.9,0-12.5,5.6-12.5,12.5
			C98.5,398.6,104.1,404.2,111,404.2z"/>
		<path class="st3" d="M460.1,404.2H485c6.9,0,12.5-5.6,12.5-12.5c0-6.9-5.6-12.5-12.5-12.5h-24.9c-6.9,0-12.5,5.6-12.5,12.5
			C447.6,398.6,453.2,404.2,460.1,404.2z"/>
		<path class="st3" d="M174.5,285.9c2.4,2.4,5.6,3.6,8.8,3.6c3.2,0,6.4-1.2,8.8-3.6c4.9-4.9,4.9-12.8,0-17.6l-17.6-17.6
			c-4.9-4.9-12.8-4.9-17.6,0c-4.9,4.9-4.9,12.8,0,17.6L174.5,285.9z"/>
		<path class="st3" d="M412.6,289.6c3.2,0,6.4-1.2,8.8-3.6l17.6-17.6c4.9-4.9,4.9-12.8,0-17.6c-4.9-4.9-12.8-4.9-17.6,0l-17.6,17.6
			c-4.9,4.9-4.9,12.8,0,17.6C406.3,288.3,409.5,289.6,412.6,289.6z"/>
	</g>
	<g>
		<g>
			<path class="st2" d="M293.5,553.7C293.5,553.7,293.5,553.7,293.5,553.7l-33.2,19.6c-2.5,1.5-2.5,3.9,0,5.3c2.5,1.5,6.5,1.5,9,0
				l22.3-13.2l0,79.6c0,2.1,2.9,3.8,6.4,3.8c3.5,0,6.4-1.7,6.4-3.8l0-79.6l22.3,13.2c2.5,1.5,6.5,1.5,9,0c2.5-1.5,2.5-3.8,0-5.3
				l-33.2-19.6c0,0,0,0,0,0C300,552.2,296,552.2,293.5,553.7z"/>
		</g>
	</g>
</g>
</svg>
