<?xml version="1.0" encoding="utf-8"?>
<!-- Generator: Adobe Illustrator 24.3.0, SVG Export Plug-In . SVG Version: 6.00 Build 0)  -->
<svg version="1.1" id="Calque_1" xmlns="http://www.w3.org/2000/svg" xmlns:xlink="http://www.w3.org/1999/xlink" x="0px" y="0px"
	 viewBox="0 0 595.3 841.9" style="enable-background:new 0 0 595.3 841.9;" xml:space="preserve">
<style type="text/css">
	.st0{fill:#B7E1F7;}
	.st1{fill:#EF791E;}
	.st2{fill:#F3924B;}
	.st3{fill:#627E8B;}
</style>
<g>
	<circle class="st0" cx="297.6" cy="378.1" r="285.5"/>
	<g>
		<path class="st1" d="M428.3,394.1c0,34.2-13.6,65.4-35.7,88h-39.7c-3.3,0-6.5,1.3-8.8,3.8l-33.7,33.5c-2.5,0.5-5.3,0.5-7.8,0.5
			c-2.5,0-5.3,0-7.8-0.5L261,485.9c-2.3-2.5-5.5-3.8-8.8-3.8h-39.7c-22.1-22.6-35.7-53.8-35.7-88c0-69.4,56.3-125.8,125.8-125.8
			S428.3,324.7,428.3,394.1z"/>
		<g>
			<path class="st2" d="M298.1,236.8c6.9,0,12.6-5.6,12.6-12.6V199c0-6.9-5.6-12.6-12.6-12.6c-6.9,0-12.6,5.6-12.6,12.6v25.2
				C285.5,231.1,291.1,236.8,298.1,236.8z"/>
			<path class="st2" d="M109.4,394.7h25.2c6.9,0,12.6-5.6,12.6-12.6s-5.6-12.6-12.6-12.6h-25.2c-6.9,0-12.6,5.6-12.6,12.6
				S102.5,394.7,109.4,394.7z"/>
			<path class="st2" d="M461.5,394.7h25.2c6.9,0,12.6-5.6,12.6-12.6s-5.6-12.6-12.6-12.6h-25.2c-6.9,0-12.6,5.6-12.6,12.6
				S454.6,394.7,461.5,394.7z"/>
			<path class="st2" d="M173.6,281c2.5,2.5,5.7,3.7,8.9,3.7c3.2,0,6.4-1.2,8.9-3.7c4.9-4.9,4.9-12.9,0-17.8l-17.8-17.8
				c-4.9-4.9-12.9-4.9-17.8,0c-4.9,4.9-4.9,12.9,0,17.8L173.6,281z"/>
			<path class="st2" d="M413.7,284.7c3.2,0,6.4-1.2,8.9-3.7l17.8-17.8c4.9-4.9,4.9-12.9,0-17.8c-4.9-4.9-12.9-4.9-17.8,0l-17.8,17.8
				c-4.9,4.9-4.9,12.9,0,17.8C407.2,283.4,410.5,284.7,413.7,284.7z"/>
		</g>
		<rect x="176.7" y="424.2" class="st0" width="251.5" height="103"/>
		<rect x="266" y="415.7" class="st1" width="60.3" height="36.8"/>
		<path class="st3" d="M486.7,405.8H348.4c-3.3,0-6.5,1.3-8.9,3.7l-41.4,41.4l-41.4-41.4c-2.4-2.4-5.6-3.7-8.9-3.7H109.4
			c-6.9,0-12.6,5.6-12.6,12.6s5.6,12.6,12.6,12.6h133.1l46.6,46.6c2.4,2.4,5.7,3.7,8.9,3.7s6.4-1.2,8.9-3.7l46.6-46.6h133.1
			c6.9,0,12.6-5.6,12.6-12.6S493.6,405.8,486.7,405.8z"/>
		<g>
			<g>
				<path class="st3" d="M302.6,568.5C302.6,568.5,302.6,568.5,302.6,568.5l33.2-19.6c2.5-1.5,2.5-3.9,0-5.3c-2.5-1.5-6.5-1.5-9,0
					l-22.3,13.2l0-79.6c0-2.1-2.9-3.8-6.4-3.8c-3.5,0-6.4,1.7-6.4,3.8l0,79.6l-22.3-13.2c-2.5-1.5-6.5-1.5-9,0
					c-2.5,1.5-2.5,3.8,0,5.3l33.2,19.6c0,0,0,0,0,0C296,570,300.1,570,302.6,568.5z"/>
			</g>
		</g>
	</g>
</g>
</svg>
