<?xml version="1.0" encoding="utf-8"?>
<!-- Generator: Adobe Illustrator 24.3.0, SVG Export Plug-In . SVG Version: 6.00 Build 0)  -->
<svg version="1.1" id="Calque_1" xmlns="http://www.w3.org/2000/svg" xmlns:xlink="http://www.w3.org/1999/xlink" x="0px" y="0px"
	 viewBox="0 0 595.3 841.9" style="enable-background:new 0 0 595.3 841.9;" xml:space="preserve">
<style type="text/css">
	.st0{fill:#B7E1F7;}
	.st1{fill:#5698D2;}
	.st2{fill:#4B676D;}
	.st3{fill:#D1162E;}
	.st4{fill:#FFFFFF;}
</style>
<g>
	<circle class="st0" cx="297.6" cy="432.1" r="285.5"/>
	<g>
		<path class="st1" d="M319.9,281C319.9,281,319.9,280.9,319.9,281v-0.3l0,0c-0.2-12.2-10.1-22.1-22.4-22.1
			c-12.2,0-22.1,9.8-22.4,22.1l0,0v89.1h44.8L319.9,281L319.9,281z"/>
		<path class="st2" d="M297.6,635.6c-47.5,0-86-38.6-86-86c0-27.2,13.2-53.1,34.8-69.1V279.8c0-28.3,23-51.3,51.3-51.3
			s51.3,23,51.3,51.3v200.5c21.6,16,34.8,41.9,34.8,69.1C383.7,596.9,345,635.6,297.6,635.6z M297.6,621.1
			c39.5,0,71.7-32.1,71.7-71.7c0-25.4-13.5-48.5-34.8-61.4V279.8c0-20.3-16.5-36.7-36.7-36.7s-36.7,16.5-36.7,36.7V488
			c-21.5,12.9-34.8,36-34.8,61.4C226,589.1,258,621.1,297.6,621.1z"/>
		<path class="st3" d="M319.9,497V369.8h-44.8V497c-20.4,8.8-34.8,29-34.8,52.6c0,31.6,25.6,57.2,57.2,57.2s57.2-25.6,57.2-57.2
			C354.7,525.8,340.4,505.6,319.9,497z"/>
		<path class="st4" d="M280.7,545.4c0,10.4-5.9,19.1-13,19.1s-13-8.5-13-19.1c0-10.4,5.9-19.1,13-19.1S280.7,534.9,280.7,545.4z"/>
		<rect x="301.9" y="456" class="st2" width="32.5" height="10"/>
		<rect x="320.3" y="427.2" class="st2" width="14.1" height="10"/>
		<rect x="301.9" y="398.5" class="st2" width="32.5" height="10"/>
		<rect x="320.3" y="369.8" class="st2" width="14.1" height="10"/>
		<rect x="301.9" y="341.1" class="st2" width="32.5" height="10"/>
		<rect x="320.3" y="312.2" class="st2" width="14.1" height="10"/>
		<rect x="301.9" y="283.4" class="st2" width="32.5" height="10"/>
		<path class="st4" d="M288.9,286.8c-0.2-1.5-1.4-2.6-2.9-2.6c-1.5,0-2.7,1.2-2.9,2.6l0,0v208.7l5.7-1.2V286.8L288.9,286.8z"/>
	</g>
</g>
</svg>
