<?xml version="1.0" encoding="utf-8"?>
<!-- Generator: Adobe Illustrator 24.3.0, SVG Export Plug-In . SVG Version: 6.00 Build 0)  -->
<svg version="1.1" id="Calque_1" xmlns="http://www.w3.org/2000/svg" xmlns:xlink="http://www.w3.org/1999/xlink" x="0px" y="0px"
	 viewBox="0 0 595.3 841.9" style="enable-background:new 0 0 595.3 841.9;" xml:space="preserve">
<style type="text/css">
	.st0{fill:#B7E1F7;}
	.st1{fill:#E14C4C;}
	.st2{fill:#D1403F;}
	.st3{fill:#E8EFF3;}
	.st4{fill:#DDE3E9;}
	.st5{fill:#404347;}
	.st6{fill:#5C6064;}
</style>
<g>
	<circle class="st0" cx="298" cy="420.5" r="285.5"/>
	<path class="st1" d="M502.2,350.6l-245.7,43.9v-160l245.7,43.9c15.8,2.8,27.5,18.1,27.5,36.1l0,0
		C529.7,332.5,518.1,347.8,502.2,350.6z"/>
	<ellipse class="st2" cx="256.6" cy="314.5" rx="23.8" ry="80"/>
	<g>
		<path class="st3" d="M470,314.5c0,14.4-1.1,29.1-3.3,42.5l-17.5,3.1c2.3-11.9,4.1-27,4.1-45.6c0-18.6-1.7-33.8-4.1-45.6l17.5,3.1
			C468.9,285.4,470,300.1,470,314.5z"/>
		<path class="st3" d="M406.2,314.5c0,18.6-1.9,38-5.6,54.2l-18.1,3.3c3.8-12.8,7-32,7-57.5c0-25.5-3.3-44.7-7-57.5l18.1,3.3
			C404.3,276.5,406.2,295.9,406.2,314.5z"/>
		<path class="st3" d="M342.3,314.5c0,23.6-3,48.3-9.1,66.3l-19.2,3.4c5.3-11.1,11.6-34.2,11.6-69.7s-6.2-58.6-11.6-69.7l19.2,3.4
			C339.3,266.2,342.3,290.9,342.3,314.5z"/>
	</g>
	<g>
		<path class="st4" d="M275.5,265.7l-40.8,18.1L203,297.8l-5.1-11.5l39-17.4l35-15.3C273.2,257.1,274.4,261.1,275.5,265.7z"/>
		<path class="st4" d="M275.5,363.3c-1.1,4.6-2.3,8.6-3.5,12.2l-35-15.3l-39-17.4l5.1-11.5l31.7,13.9L275.5,363.3z"/>
	</g>
	<path class="st5" d="M214.1,597V232.4c0-7.5-6.1-13.6-13.6-13.6c-7.5,0-13.6,6.1-13.6,13.6V597H214.1z"/>
	<path class="st6" d="M274.8,623.1H126.2c0-12.2,4.9-23.2,12.9-31.2c8-8,19-12.9,31.2-12.9h60.3C255,579,274.8,598.8,274.8,623.1z"
		/>
</g>
</svg>
